<?xml version="1.0" standalone="no"?>
<!DOCTYPE svg PUBLIC "-//W3C//DTD SVG 20010904//EN"
 "http://www.w3.org/TR/2001/REC-SVG-20010904/DTD/svg10.dtd">
<svg version="1.0" xmlns="http://www.w3.org/2000/svg"
 width="640.000000pt" height="640.000000pt" viewBox="0 0 640.000000 640.000000"
 preserveAspectRatio="xMidYMid meet">
<metadata>
Created by potrace 1.14, written by Peter Selinger 2001-2017
</metadata>
<g transform="translate(0.000000,640.000000) scale(0.100000,-0.100000)"
fill="#000000" stroke="none">
<path d="M4755 5391 c2 -2 -1 -9 -8 -17 -27 -31 -37 -44 -37 -50 0 -4 -13 -29
-30 -55 -16 -27 -27 -49 -25 -49 3 0 0 -6 -7 -14 -7 -8 -17 -11 -22 -8 -5 3
-6 0 -3 -5 8 -13 -44 -114 -54 -107 -4 2 -6 -4 -5 -13 2 -10 0 -20 -3 -23 -11
-8 -65 -104 -67 -119 -2 -8 -9 -18 -16 -22 -7 -5 -9 -9 -4 -9 6 0 1 -6 -10
-14 -25 -19 -35 -3 -29 44 12 98 5 177 -20 237 -8 18 -12 33 -9 33 3 0 -1 6
-8 14 -29 31 -48 57 -48 67 0 5 -4 8 -9 5 -5 -3 -11 1 -15 9 -3 8 -12 15 -21
15 -8 0 -15 3 -15 8 0 10 -53 32 -87 36 -15 2 -28 5 -28 6 0 3 -225 10 -275
10 -8 0 -500 -1 -1092 -2 -676 -1 -1074 -6 -1071 -12 4 -5 1 -6 -8 0 -17 11
-599 13 -599 1 0 -4 -8 -4 -17 0 -17 8 -35 9 -58 3 -5 -2 -14 -4 -20 -5 -5 -1
-23 -7 -38 -13 -16 -7 -32 -12 -37 -12 -4 0 -11 -7 -14 -16 -3 -8 -10 -12 -16
-9 -5 3 -10 -1 -10 -10 0 -9 -3 -14 -8 -12 -4 2 -17 -6 -30 -19 -12 -13 -19
-24 -15 -24 4 0 -1 -7 -12 -16 -11 -8 -19 -17 -18 -19 1 -3 -4 -19 -11 -37 -8
-18 -12 -42 -10 -55 3 -13 0 -23 -5 -23 -6 0 -8 -6 -5 -14 3 -8 0 -17 -5 -21
-6 -3 -8 -11 -4 -18 10 -16 9 -307 -1 -307 -5 0 -4 -6 1 -12 10 -15 10 -309
-1 -326 -4 -7 -3 -12 2 -12 5 0 7 -12 5 -27 -2 -16 -4 -32 -3 -38 5 -87 3
-435 -3 -435 -5 0 -5 -5 -1 -12 10 -16 11 -259 1 -265 -4 -2 -4 -12 1 -21 9
-21 9 -43 -1 -59 -5 -7 -5 -13 0 -13 9 0 9 -362 0 -377 -4 -6 -3 -13 0 -17 11
-10 9 -306 -1 -306 -5 0 -4 -6 1 -13 7 -9 8 -156 3 -312 0 -5 1 -21 3 -35 2
-14 0 -35 -5 -48 -4 -12 -4 -22 0 -22 4 0 6 -84 5 -187 -2 -104 -3 -192 -3
-198 5 -331 3 -635 -3 -635 -5 0 -5 -5 -1 -12 4 -7 9 -28 10 -48 3 -40 12
-104 15 -107 1 -2 2 -6 3 -10 6 -22 30 -63 38 -63 4 0 8 -5 8 -10 0 -14 52
-66 62 -63 4 2 8 -1 8 -7 0 -13 80 -51 92 -44 5 3 15 1 22 -5 18 -15 3108 -16
3137 -1 11 6 24 8 29 5 5 -3 11 -1 15 5 4 6 11 8 16 5 5 -4 9 -1 9 6 0 7 3 10
6 6 6 -6 17 1 64 45 16 14 31 23 34 20 3 -3 6 0 6 7 0 7 9 24 20 38 11 14 20
34 20 44 0 9 4 19 10 21 18 6 21 102 20 768 -1 371 -1 682 0 690 1 48 -2 115
-6 121 -2 4 0 10 6 14 7 4 7 12 1 23 -6 10 -6 23 0 34 6 12 6 18 0 18 -13 0
12 47 35 66 11 9 13 12 6 9 -11 -6 -11 -3 -1 13 7 12 17 19 21 16 4 -3 5 2 2
10 -3 9 -1 16 5 16 6 0 11 9 11 20 0 11 4 20 8 20 5 0 17 18 27 40 10 22 22
40 27 40 4 0 8 6 8 14 0 7 9 25 20 38 10 14 17 28 13 31 -3 4 1 9 10 13 9 3
19 19 22 35 4 16 11 29 16 29 5 0 9 7 9 15 0 8 4 15 9 15 8 0 15 16 19 43 1 4
8 15 17 23 8 9 15 22 15 30 0 8 5 14 10 14 6 0 10 7 10 15 0 8 5 15 10 15 6 0
10 8 10 17 0 9 7 24 15 32 12 15 44 69 111 191 10 19 26 41 34 48 13 12 13 13
0 7 -12 -5 -12 -4 1 7 9 7 16 15 15 18 -1 11 38 69 44 65 4 -2 7 1 7 8 0 22
80 166 88 159 5 -4 6 0 3 9 -4 9 2 22 13 30 10 7 19 21 19 29 0 9 8 25 18 36
9 11 18 26 20 34 2 8 7 17 11 20 4 3 15 22 25 43 10 22 22 35 28 31 7 -4 8 -2
4 5 -4 6 2 24 13 40 11 15 18 31 14 35 -3 3 -2 6 4 6 5 0 18 18 28 40 10 22
21 40 25 40 3 0 12 17 19 38 8 20 22 44 32 53 10 9 16 19 13 22 -3 3 5 21 19
39 13 18 37 57 52 86 16 28 32 52 36 52 5 0 6 7 3 15 -4 8 1 17 10 21 9 3 13
10 11 15 -3 4 3 17 15 29 11 11 20 25 20 31 0 6 9 24 20 39 11 15 21 38 22 51
2 13 8 27 13 31 6 5 5 8 -2 8 -7 0 -13 7 -13 15 0 8 -5 15 -11 15 -5 0 -7 5
-3 12 4 6 3 8 -3 5 -6 -4 -16 0 -23 8 -7 8 -22 15 -33 15 -11 0 -17 3 -14 7 4
3 -16 17 -43 30 -28 13 -50 28 -50 33 0 6 -3 9 -7 9 -21 -3 -33 2 -27 13 4 6
3 8 -4 4 -6 -3 -13 -2 -17 4 -4 6 -11 8 -16 5 -5 -4 -9 -1 -9 4 0 6 -7 11 -15
11 -7 0 -18 8 -24 18 -5 9 -13 16 -18 15 -13 -4 -43 8 -43 17 0 5 -16 14 -35
20 -19 6 -35 16 -35 21 0 5 -6 9 -14 9 -8 0 -16 3 -18 8 -1 4 -24 18 -50 31
-27 13 -48 28 -48 33 0 5 -4 7 -9 3 -5 -3 -16 1 -24 9 -8 8 -17 12 -21 9 -3
-4 -6 -1 -6 5 0 7 -5 12 -10 12 -6 0 -29 12 -53 27 -23 14 -42 25 -42 23 0 -2
-11 2 -24 9 -21 12 -96 22 -86 12z"/>
</g>
</svg>
